<svg width="16" height="16" viewBox="0 0 16 16" fill="none" xmlns="http://www.w3.org/2000/svg">
<path d="M14 -8.74228e-08C15.1046 -3.91405e-08 16 0.895431 16 2L16 8L-3.49691e-07 8L-8.74228e-08 2C-3.91405e-08 0.89543 0.895431 -6.60242e-07 2 -6.11959e-07L14 -8.74228e-08Z" fill="#5492FE"/>
<mask id="path-2-inside-1_17_51" fill="white">
<path d="M0 8H16V16H0V8Z"/>
</mask>
<path d="M16 16V16.5H16.5V16H16ZM0 16H-0.5V16.5H0V16ZM0 8H-0.5V9H0H0.5V8H0ZM0 11H-0.5V13H0H0.5V11H0ZM0 15H-0.5V16H0H0.5V15H0ZM0 16V16.5H1V16V15.5H0V16ZM3 16V16.5H5V16V15.5H3V16ZM7 16V16.5H9V16V15.5H7V16ZM11 16V16.5H13V16V15.5H11V16ZM15 16V16.5H16V16V15.5H15V16ZM16 16H16.5V15H16H15.5V16H16ZM16 13H16.5V11H16H15.5V13H16ZM16 9H16.5V8H16H15.5V9H16ZM16 16V17H17V16H16ZM0 16H-1V17H0V16ZM0 8H-1V9H0H1V8H0ZM0 11H-1V13H0H1V11H0ZM0 15H-1V16H0H1V15H0ZM0 16V17H1V16V15H0V16ZM3 16V17H5V16V15H3V16ZM7 16V17H9V16V15H7V16ZM11 16V17H13V16V15H11V16ZM15 16V17H16V16V15H15V16ZM16 16H17V15H16H15V16H16ZM16 13H17V11H16H15V13H16ZM16 9H17V8H16H15V9H16Z" fill="black" fill-opacity="0.4" mask="url(#path-2-inside-1_17_51)"/>
</svg>
