<svg width="40" height="30" viewBox="0 0 40 30" fill="none" xmlns="http://www.w3.org/2000/svg">
<mask id="path-1-inside-1_15_149" fill="white">
<path d="M40 28C40 29.1046 39.1046 30 38 30L2 30C0.895432 30 1.56562e-08 29.1046 3.49691e-08 28L2.62268e-07 15L40 15L40 28Z"/>
</mask>
<path d="M-1 16.083L-1 15L1 15L1 16.083L-1 16.083ZM39 16.083L39 15L41 15L41 16.083L39 16.083ZM39 20.417L39 18.25L41 18.25L41 20.417L39 20.417ZM-1 20.417L-1 18.25L1 18.25L1 20.417L-1 20.417ZM39 24.75L39 22.583L41 22.583L41 24.75L39 24.75ZM-1 24.75L-1 22.583L1 22.583L1 24.75L-1 24.75ZM39 26.917L41 26.917L41 28C41 28.1004 40.9951 28.1998 40.9854 28.2979C40.9849 28.3021 40.9838 28.3063 40.9834 28.3106C40.9531 28.6037 40.8807 28.8852 40.7715 29.1485L39.8486 28.7657L38.9248 28.3828C38.9545 28.3111 38.975 28.2344 38.9873 28.1543C38.9951 28.104 39 28.0525 39 28L39 26.917ZM-1 26.917L1 26.917L1 28C1 28.1374 1.02688 28.2663 1.0752 28.3828L0.151367 28.7656L-0.771484 29.1485C-0.880657 28.8852 -0.953129 28.6036 -0.983398 28.3106C-0.983837 28.3063 -0.984932 28.3021 -0.985352 28.2979C-0.99506 28.1998 -1 28.1004 -1 28L-1 26.917ZM37 31L37 29L38 29C38.0406 29 38.0807 28.9979 38.1201 28.9932C38.2128 28.9822 38.3009 28.9588 38.3828 28.9248L38.7656 29.8487L39.1484 30.7715C38.8852 30.8807 38.6036 30.9532 38.3105 30.9834C38.3011 30.9844 38.2917 30.9845 38.2822 30.9854C38.1892 30.9941 38.0951 31 38 31L37 31ZM2 31C1.90523 31 1.81151 30.994 1.71875 30.9854C1.70932 30.9845 1.69983 30.9844 1.69043 30.9834C1.397 30.9532 1.11512 30.8808 0.851562 30.7715L1.23438 29.8486L1.61719 28.9248C1.69936 28.9589 1.78782 28.9823 1.88086 28.9932C1.91992 28.9978 1.95969 29 2 29L3 29L3 31L2 31ZM33 31L33 29L35 29L35 31L33 31ZM29 31L29 29L31 29L31 31L29 31ZM25 31L25 29L27 29L27 31L25 31ZM21 31L21 29L23 29L23 31L21 31ZM17 31L17 29L19 29L19 31L17 31ZM13 31L13 29L15 29L15 31L13 31ZM9 31L9 29L11 29L11 31L9 31ZM5 31L5 29L7 29L7 31L5 31Z" fill="black" fill-opacity="0.3" mask="url(#path-1-inside-1_15_149)"/>
<path d="M3.49691e-07 2.00003C1.56562e-07 0.895461 0.895431 3.0361e-05 2 3.01679e-05L38 2.38734e-05C39.1046 2.36803e-05 40 0.895454 40 2.00002L40 15L2.62268e-06 15L3.49691e-07 2.00003Z" fill="#5492FE"/>
</svg>
